<svg width="33" height="33" viewBox="0 0 33 33" fill="none" xmlns="http://www.w3.org/2000/svg">
<path fill-rule="evenodd" clip-rule="evenodd" d="M13.8855 4.36963H19.3789C21.834 4.36961 23.7782 4.36959 25.2998 4.57378C26.8653 4.78387 28.1323 5.22648 29.1317 6.22397C30.6173 7.70682 30.8917 9.80633 30.965 12.6699C30.9901 13.6516 30.2135 14.2542 29.5642 14.424C28.8456 14.6119 28.3186 15.2649 28.3186 16.0363C28.3186 16.8077 28.8456 17.4607 29.5642 17.6486C30.2135 17.8184 30.9901 18.421 30.965 19.4026C30.8917 22.2663 30.6173 24.3658 29.1317 25.8486C28.1323 26.8461 26.8653 27.2887 25.2998 27.4988C23.7782 27.703 21.834 27.703 19.3789 27.703H13.8855C11.4304 27.703 9.48619 27.703 7.96467 27.4988C6.39909 27.2887 5.13209 26.8461 4.13276 25.8486C2.64716 24.3658 2.37276 22.2663 2.29942 19.4027C2.27428 18.421 3.05095 17.8184 3.70022 17.6486C4.41882 17.4607 4.94582 16.8077 4.94582 16.0363C4.94582 15.2649 4.41882 14.6119 3.70022 14.424C3.05096 14.2542 2.27428 13.6516 2.29942 12.6699C2.37276 9.80633 2.64716 7.70682 4.13275 6.22397C5.13209 5.22648 6.39909 4.78387 7.96467 4.57378C9.48619 4.36959 11.4304 4.36961 13.8855 4.36963ZM8.23068 6.55601C6.88621 6.73643 6.11131 7.07488 5.54566 7.63949C4.70856 8.47504 4.38876 9.73986 4.30449 12.5162C5.82913 12.9608 6.94582 14.3663 6.94582 16.0363C6.94582 17.7063 5.82913 19.1118 4.30449 19.5564C4.38877 22.3327 4.70856 23.5976 5.54566 24.4331C6.11131 24.9977 6.88621 25.3362 8.23068 25.5166C9.60373 25.7008 11.4136 25.703 13.9606 25.703H19.3038C21.8508 25.703 23.6607 25.7008 25.0337 25.5166C26.3782 25.3362 27.1531 24.9977 27.7188 24.4331C28.5559 23.5976 28.8757 22.3327 28.9599 19.5564C27.4353 19.1118 26.3186 17.7063 26.3186 16.0363C26.3186 14.3663 27.4353 12.9608 28.9599 12.5162C28.8757 9.73985 28.5559 8.47504 27.7188 7.63949C27.1531 7.07488 26.3782 6.73643 25.0337 6.55601C23.6607 6.37175 21.8508 6.36963 19.3038 6.36963H13.9606C11.4136 6.36963 9.60373 6.37175 8.23068 6.55601ZM16.6322 13.4156C16.5547 13.5498 16.4685 13.7043 16.3669 13.8865L16.2359 14.1217C16.2266 14.1383 16.2167 14.1564 16.2061 14.1758C16.1014 14.3673 15.928 14.6844 15.6388 14.9039C15.3437 15.128 14.9886 15.2051 14.781 15.2502C14.7602 15.2547 14.7409 15.2589 14.7232 15.2629L14.4687 15.3205C14.2351 15.3733 14.0449 15.4164 13.8822 15.4573C13.988 15.5876 14.1255 15.7493 14.3043 15.9583L14.4778 16.1613C14.4901 16.1757 14.5035 16.1911 14.5177 16.2075C14.6616 16.3733 14.894 16.6409 15.0015 16.9864C15.1076 17.3279 15.071 17.6795 15.0479 17.9014C15.0456 17.9235 15.0434 17.9444 15.0415 17.9638L15.0153 18.2345C14.991 18.4855 14.9721 18.6859 14.9595 18.8488C15.0984 18.7876 15.2565 18.7149 15.4443 18.6284L15.6826 18.5187C15.699 18.5111 15.717 18.5027 15.7364 18.4935C15.9277 18.4032 16.2607 18.2462 16.6322 18.2462C17.0038 18.2462 17.3367 18.4032 17.528 18.4935C17.5475 18.5027 17.5654 18.5111 17.5818 18.5187L17.8202 18.6284C18.0079 18.7149 18.166 18.7876 18.3049 18.8488C18.2924 18.6859 18.2734 18.4855 18.2491 18.2345L18.2229 17.9638C18.221 17.9444 18.2188 17.9235 18.2165 17.9014C18.1934 17.6795 18.1568 17.3279 18.263 16.9864C18.3704 16.6409 18.6028 16.3733 18.7467 16.2075C18.7609 16.1911 18.7743 16.1757 18.7866 16.1613L18.9602 15.9583C19.139 15.7493 19.2764 15.5876 19.3822 15.4573C19.2195 15.4164 19.0293 15.3733 18.7957 15.3205L18.5412 15.2629C18.5235 15.2589 18.5042 15.2547 18.4834 15.2502C18.2758 15.2051 17.9208 15.128 17.6256 14.9039C17.3365 14.6844 17.1631 14.3673 17.0584 14.1758C17.0477 14.1564 17.0378 14.1383 17.0286 14.1217L16.8975 13.8865C16.7959 13.7043 16.7097 13.5498 16.6322 13.4156ZM15.3169 11.7691C15.5464 11.4694 15.9633 11.0363 16.6322 11.0363C17.3011 11.0363 17.718 11.4694 17.9476 11.7691C18.1667 12.0552 18.3873 12.4513 18.6135 12.8573C18.6238 12.8758 18.6341 12.8943 18.6444 12.9127L18.7755 13.1479C18.8059 13.2024 18.8298 13.2453 18.8507 13.282C18.8872 13.2906 18.9296 13.3002 18.9825 13.3122L19.2371 13.3698C19.2579 13.3745 19.2788 13.3792 19.2996 13.3839C19.7367 13.4827 20.1711 13.5808 20.5045 13.7122C20.8727 13.8573 21.3718 14.1399 21.5641 14.7584C21.7531 15.3661 21.5146 15.8808 21.3064 16.2116C21.1137 16.5177 20.8208 16.8601 20.5209 17.2106C20.5073 17.2265 20.4937 17.2423 20.4802 17.2582L20.3066 17.4611C20.2607 17.5149 20.226 17.5554 20.1968 17.5905C20.2008 17.639 20.2062 17.6954 20.2136 17.7709L20.2398 18.0416C20.2418 18.0623 20.2438 18.0829 20.2458 18.1035C20.2914 18.5727 20.3354 19.0262 20.3192 19.3889C20.3023 19.7693 20.211 20.345 19.6948 20.7369C19.1623 21.1412 18.5741 21.053 18.2011 20.9462C17.8575 20.8477 17.4514 20.6606 17.0425 20.4722C17.0229 20.4632 17.0033 20.4541 16.9837 20.4451L16.7454 20.3354C16.7008 20.3148 16.6641 20.298 16.6322 20.2835C16.6003 20.298 16.5636 20.3148 16.519 20.3354L16.2807 20.4451C16.2611 20.4541 16.2415 20.4632 16.2219 20.4722C15.813 20.6606 15.4069 20.8477 15.0633 20.9462C14.6903 21.053 14.1022 21.1412 13.5696 20.7369C13.0534 20.345 12.9621 19.7693 12.9452 19.3889C12.929 19.0262 12.9731 18.5727 13.0186 18.1035C13.0206 18.0829 13.0226 18.0623 13.0246 18.0416L13.0509 17.7709C13.0582 17.6954 13.0636 17.639 13.0676 17.5905C13.0384 17.5554 13.0038 17.5149 12.9578 17.4611L12.7843 17.2582C12.7707 17.2423 12.7571 17.2265 12.7436 17.2106C12.4437 16.8601 12.1508 16.5177 11.958 16.2116C11.7498 15.8808 11.5113 15.3661 11.7003 14.7584C11.8926 14.1399 12.3917 13.8573 12.7599 13.7122C13.0933 13.5808 13.5277 13.4827 13.9648 13.3839C13.9857 13.3792 14.0065 13.3745 14.0273 13.3698L14.2819 13.3122C14.3349 13.3002 14.3772 13.2906 14.4137 13.282C14.4346 13.2453 14.4585 13.2024 14.4889 13.1479L14.62 12.9127C14.6303 12.8943 14.6406 12.8758 14.6509 12.8573C14.8771 12.4513 15.0978 12.0552 15.3169 11.7691Z" fill="#E2E8F0"/>
</svg>
