<svg width="31" height="31" viewBox="0 0 31 31" fill="none" xmlns="http://www.w3.org/2000/svg">
<path fill-rule="evenodd" clip-rule="evenodd" d="M15.5611 1.59888C12.6756 1.59886 10.4143 1.59885 8.64994 1.83606C6.84403 2.07886 5.419 2.58554 4.30048 3.70405C3.18197 4.82256 2.6753 6.24759 2.4325 8.05351C2.19529 9.81786 2.1953 12.0792 2.19531 14.9646V15.1081C2.1953 17.9936 2.19529 20.2549 2.4325 22.0192C2.6753 23.8252 3.18197 25.2502 4.30048 26.3687C5.419 27.4872 6.84403 27.9939 8.64994 28.2367C10.4143 28.4739 12.6756 28.4739 15.5611 28.4739H15.7045C18.59 28.4739 20.8513 28.4739 22.6157 28.2367C24.4216 27.9939 25.8466 27.4872 26.9651 26.3687C28.0837 25.2502 28.5903 23.8252 28.8331 22.0192C29.0703 20.2549 29.0703 17.9936 29.0703 15.1081V14.9647C29.0703 12.0792 29.0703 9.81787 28.8331 8.05351C28.5903 6.24759 28.0837 4.82256 26.9651 3.70405C25.8466 2.58554 24.4216 2.07886 22.6157 1.83606C20.8513 1.59885 18.59 1.59886 15.7046 1.59888H15.5611ZM14.6953 3.47422C12.2032 3.47685 10.3486 3.49955 8.89978 3.69434C7.30178 3.90919 6.33838 4.3178 5.62631 5.02987C4.91424 5.74194 4.50562 6.70534 4.29078 8.30335C4.09598 9.7522 4.07329 11.6067 4.07066 14.0989H9.27501C8.8363 13.5509 8.5085 12.9045 8.32976 12.1895C7.65694 9.49827 10.0947 7.06051 12.786 7.73332C13.5009 7.91207 14.1473 8.23986 14.6953 8.67857V3.47422ZM4.07066 15.9739C4.07329 18.466 4.09598 20.3206 4.29078 21.7694C4.50562 23.3674 4.91424 24.3308 5.62631 25.0429C6.33838 25.755 7.30178 26.1636 8.89978 26.3784C10.3486 26.5732 12.2032 26.5959 14.6953 26.5985V17.6909C13.7208 19.6375 11.7079 20.9739 9.38281 20.9739C8.86505 20.9739 8.44531 20.5541 8.44531 20.0364C8.44531 19.5186 8.86505 19.0989 9.38281 19.0989C11.3038 19.0989 12.9134 17.7656 13.3366 15.9739H13.1767L13.1652 15.9739H4.07066ZM16.5703 26.5985C19.0625 26.5959 20.917 26.5732 22.3658 26.3784C23.9638 26.1636 24.9272 25.755 25.6393 25.0429C26.3514 24.3308 26.76 23.3674 26.9748 21.7694C27.1696 20.3206 27.1923 18.466 27.195 15.9739H18.1005L18.089 15.9739H17.929C18.3523 17.7656 19.9618 19.0989 21.8828 19.0989C22.4006 19.0989 22.8203 19.5186 22.8203 20.0364C22.8203 20.5541 22.4006 20.9739 21.8828 20.9739C19.5578 20.9739 17.5449 19.6375 16.5703 17.6909V26.5985ZM27.195 14.0989H21.9906C22.4293 13.5509 22.7571 12.9045 22.9359 12.1895C23.6087 9.49827 21.1709 7.06051 18.4797 7.73332C17.7647 7.91207 17.1183 8.23987 16.5703 8.67858V3.47422C19.0625 3.47685 20.917 3.49955 22.3658 3.69434C23.9638 3.90919 24.9272 4.3178 25.6393 5.02987C26.3514 5.74194 26.76 6.70534 26.9748 8.30335C27.1696 9.7522 27.1923 11.6067 27.195 14.0989ZM16.5703 14.0989L16.5703 12.5728C16.5737 11.1437 17.5474 9.89909 18.9344 9.55234C20.2525 9.22283 21.4464 10.4167 21.1169 11.7348C20.7702 13.1212 19.5264 14.0948 18.0981 14.0989H16.5703ZM14.6953 12.5707C14.691 11.1426 13.7175 9.89892 12.3312 9.55234C11.0132 9.22283 9.81926 10.4167 10.1488 11.7348C10.4954 13.1212 11.7392 14.0948 13.1676 14.0989H14.6953V12.5707Z" fill="#E2E8F0"/>
</svg>
