<svg width="28" height="28" viewBox="0 0 28 28" fill="none" xmlns="http://www.w3.org/2000/svg">
<g clip-path="url(#clip0_1714_18985)">
<path fill-rule="evenodd" clip-rule="evenodd" d="M13.375 2.47461C7.33439 2.47461 2.4375 7.3715 2.4375 13.4121C2.4375 19.4527 7.33439 24.3496 13.375 24.3496C19.4156 24.3496 24.3125 19.4527 24.3125 13.4121C24.3125 7.3715 19.4156 2.47461 13.375 2.47461ZM0.5625 13.4121C0.5625 6.33596 6.29885 0.599609 13.375 0.599609C20.4511 0.599609 26.1875 6.33596 26.1875 13.4121C26.1875 20.4883 20.4511 26.2246 13.375 26.2246C6.29885 26.2246 0.5625 20.4883 0.5625 13.4121ZM23.3371 23.3742C23.7032 23.0081 24.2968 23.0081 24.6629 23.3742L27.1629 25.8742C27.529 26.2403 27.529 26.8339 27.1629 27.2C26.7968 27.5661 26.2032 27.5661 25.8371 27.2L23.3371 24.7C22.971 24.3339 22.971 23.7403 23.3371 23.3742Z" fill="white" stroke="white" stroke-linecap="round"/>
</g>
<defs>
<clipPath id="clip0_1714_18985">
<rect width="28" height="28" fill="white"/>
</clipPath>
</defs>
</svg>
